<?xml version="1.0" standalone="no"?>
<!DOCTYPE svg PUBLIC "-//W3C//DTD SVG 20010904//EN"
 "http://www.w3.org/TR/2001/REC-SVG-20010904/DTD/svg10.dtd">
<svg version="1.0" xmlns="http://www.w3.org/2000/svg"
 width="260.000000pt" height="260.000000pt" viewBox="0 0 260.000000 260.000000"
 preserveAspectRatio="xMidYMid meet">
<metadata>
Created by potrace 1.11, written by Peter Selinger 2001-2013
</metadata>
<g transform="translate(0.000000,260.000000) scale(0.100000,-0.100000)"
fill="#000000" stroke="none">
<path d="M1250 2104 c-85 -11 -212 -49 -295 -89 -204 -98 -357 -281 -421 -505
-29 -99 -26 -327 4 -435 81 -284 291 -485 592 -566 71 -19 111 -23 240 -23
254 -1 417 51 585 185 55 44 138 137 137 154 0 6 -128 123 -310 283 l-63 55
-45 -51 c-62 -71 -120 -109 -196 -128 -154 -40 -306 37 -354 179 -24 70 -24
196 -1 264 41 117 142 186 277 187 102 1 185 -38 264 -126 l55 -61 38 33 c21
19 106 94 190 168 l152 135 -19 26 c-33 47 -134 142 -192 181 -73 48 -187 96
-280 116 -72 15 -290 26 -358 18z"/>
</g>
</svg>
